# xmcd
#
# Track frame offsets:
#	150
#	11816
#	23454
#	34645
#	49936
#	63184
#	76130
#	87825
#	99823
#	112241
#	121825
#	132995
#	142796
#	153954
#	164994
#	178826
#	190438
#	200564
#	212453
#	222033
#	233238
#	245714
#	254287
#	268180
#	277962
#	289435
#	300321
#	313740
#	326482
#	338808
#
# Disc length: 4692 seconds
#
# Revision: 0
# Processed by: cddbd v1.5.2PL0 Copyright (c) Steve Scherf et al.
# Submitted via: EasyCDDAExtractor 15.2.1.1
#
DISCID=b012521e
DTITLE=Ray Price - The original outlaw
DYEAR=2015
DGENRE=Country
TTITLE0=I love You because
TTITLE1=Let me talk to You
TTITLE2=Blues stay away from Me
TTITLE3=Many tears ago
TTITLE4=Letters have no arms
TTITLE5=Faded Love
TTITLE6=Remember Me
TTITLE7=I saw my castles fall today
TTITLE8=I'll sail my ship alone
TTITLE9=I can't help it
TTITLE10=Mansion on the hill
TTITLE11=Pins and needles
TTITLE12=Talk to your heart
TTITLE13=I'll keep on loving You
TTITLE14=I love You so much
TTITLE15=I told You so
TTITLE16=Wondering
TTITLE17=Deep Water
TTITLE18=Ice cold Heart
TTITLE19=I gotta have my baby back
TTITLE20=There'll be no teardrops
TTITLE21=I'm tired
TTITLE22=Driftwood on the river
TTITLE23=Please don't leave me
TTITLE24=Crazy arms
TTITLE25=You done me wrong
TTITLE26=City lights
TTITLE27=Invitation to the blues
TTITLE28=I've got a new Heartache
TTITLE29=Who'll be the first
EXTD=
EXTT0=
EXTT1=
EXTT2=
EXTT3=
EXTT4=
EXTT5=
EXTT6=
EXTT7=
EXTT8=
EXTT9=
EXTT10=
EXTT11=
EXTT12=
EXTT13=
EXTT14=
EXTT15=
EXTT16=
EXTT17=
EXTT18=
EXTT19=
EXTT20=
EXTT21=
EXTT22=
EXTT23=
EXTT24=
EXTT25=
EXTT26=
EXTT27=
EXTT28=
EXTT29=
PLAYORDER=
